<svg xmlns="http://www.w3.org/2000/svg" xmlns:xlink="http://www.w3.org/1999/xlink" viewBox="0 0 1000 1000" width="1000" height="1000"><defs><path id="b" d="M160.9 419.9c-1.2 1.3-1.8 2.8-1.8 4.6.6 24.4.9 48.7.9 73.1-22.6-33.8-39.4-59.3-50.4-76.7-1-1.9-2.7-2.8-4.9-2.7-12.9.3-25.7.9-38.6 1.8-1.8.1-3.3.9-4.6 2.2-1.3 1.3-2 2.8-2.1 4.5-3 49.3-3 98.6 0 147.9.1 1.6.9 3.1 2.1 4.5 1.3 1.3 2.8 2.1 4.6 2.2 13 .7 26 1.3 39 1.8 1.6 0 3.1-.6 4.3-1.8 1.2-1.2 1.8-2.7 1.8-4.5-.4-23.2-.7-46.3-.7-69.5 20.6 31.7 36.2 56 46.8 73.1 1.2 1.9 2.9 2.8 5.2 2.7 13.9-.3 27.9-.9 41.9-1.8.7-.1 1.5-.4 2.4-.8.8-.4 1.5-.9 2.1-1.5.6-.6 1.1-1.3 1.5-2 .4-.7.6-1.6.6-2.5 3-49.3 3-98.6 0-147.9-.2-1.6-.9-3.1-2.1-4.5-1.3-1.3-2.7-2.1-4.4-2.2-13-.9-26-1.5-39-1.8h-.6c-1.6.1-3 .6-4 1.8m402.3 0c-1.2 1.3-1.8 2.8-1.8 4.6.6 24.4.9 48.7.9 73.1-22.6-33.8-39.4-59.3-50.4-76.7-1-1.9-2.7-2.8-4.9-2.7-12.9.3-25.7.9-38.6 1.8-1.8.1-3.3.9-4.6 2.2-1.3 1.3-2 2.8-2.1 4.5-3 49.3-3 98.6 0 147.9.1 1.6.9 3.1 2.1 4.5 1.3 1.3 2.8 2.1 4.6 2.2 13 .7 26 1.3 39 1.8 1.6 0 3.1-.6 4.3-1.8 1.2-1.2 1.8-2.7 1.8-4.5-.4-23.2-.7-46.3-.7-69.5 20.6 31.7 36.2 56 46.8 73.1 1.2 1.9 2.9 2.8 5.2 2.7 13.9-.3 27.9-.9 41.9-1.8.7-.1 1.5-.4 2.4-.8.8-.4 1.5-.9 2.1-1.5.6-.6 1.1-1.3 1.5-2 .4-.7.6-1.6.6-2.5 3-49.3 3-98.6 0-147.9-.1-1.6-.9-3.1-2.1-4.5-1.3-1.3-2.7-2.1-4.4-2.2-13-.9-26-1.5-39-1.8h-.6c-1.6.1-2.9.6-4 1.8m-169.4 1.2c-5.5 11.2-12 24.1-19.5 38.6-7.9-14.5-14.9-27.4-20.8-38.8-1.2-1.9-2.9-2.9-5.2-2.9-13.6.4-27.1 1.1-40.6 2-2.4.3-4.3 1.5-5.6 3.7-1.3 2.2-1.4 4.2-.2 6.2 9.1 15.5 23.6 39.3 43.5 71.3-19.3 31.3-33.4 54.8-42.4 70.3-1.2 1.9-1.1 4 .2 6.3 1.3 2.2 3.2 3.4 5.6 3.6 13.4.9 26.9 1.6 40.3 2 2.2 0 4-1 5.2-2.9 5.7-10.9 12.3-23.2 20-37 7.2 13.8 13.4 26 18.8 36.8 1.2 2.1 3 3.1 5.4 3.1 13.6-.4 27.2-1.1 40.8-2 2.4-.1 4.3-1.3 5.6-3.6 1.3-2.2 1.4-4.3.2-6.3-9.1-15.4-23.3-38.7-42.6-69.9 19.9-32.3 34.4-56.2 43.5-71.7 1.2-1.9 1.1-4-.2-6.2s-3.2-3.4-5.6-3.7c-13.6-.9-27.3-1.6-41-2-2.4 0-4.2 1-5.4 3.1m496 0c-5.5 11.2-12 24.1-19.5 38.6-7.9-14.5-14.9-27.4-20.8-38.8-1.2-1.9-2.9-2.9-5.2-2.9-13.6.4-27.1 1.1-40.6 2-2.4.3-4.3 1.5-5.6 3.7-1.3 2.2-1.4 4.2-.2 6.2 9.1 15.5 23.6 39.3 43.5 71.3-19.3 31.4-33.4 54.8-42.4 70.4-1.2 1.9-1.1 4 .2 6.3 1.3 2.2 3.2 3.4 5.6 3.6 13.4.9 26.9 1.6 40.3 2 2.2 0 4-1 5.2-2.9 5.7-10.9 12.3-23.2 20-37 7.2 13.8 13.4 26 18.8 36.8 1.2 2.1 3 3.1 5.4 3.1 13.6-.4 27.2-1.1 40.8-2 2.4-.1 4.3-1.3 5.6-3.6 1.3-2.2 1.4-4.3.2-6.3-9.1-15.4-23.3-38.7-42.6-69.9 19.9-32.3 34.4-56.2 43.5-71.7 1.2-1.9 1.1-4-.2-6.2s-3.2-3.4-5.6-3.7c-13.6-.9-27.3-1.6-41-2-2.4-.1-4.2.9-5.4 3m-652.3-2c-1.6.3-3.1 1.2-4.4 2.6-1.3 1.4-1.9 3-1.9 4.8-1 49.3-1 98.6 0 147.9 0 1.6.6 3.2 1.9 4.7 1.3 1.5 2.7 2.4 4.4 2.7 13.1 2.1 26.2 2.1 39.2 0 1.6-.3 3.1-1.2 4.4-2.7 1.3-1.5 1.9-3.1 1.9-4.7 1-49.3 1-98.6 0-147.9 0-1.8-.6-3.4-1.9-4.8-1.3-1.4-2.7-2.3-4.4-2.6-6.5-1-13-1.6-19.6-1.6-6.4 0-13 .5-19.6 1.6m461 89.3c1.3-4.7 2.7-9.9 4.3-15.7 1.6-5.8 2.7-10.2 3.5-13.3 7.2 27.9 10.8 42.1 11 42.4H695c1.1-4.2 2.2-8.7 3.5-13.4m7.7-91.8c-8.4 0-16.9.1-25.3.2-3 .2-5 1.7-6.1 4.7-1.6 5.2-4.9 15.1-9.8 29.6-4.9 14.5-8.4 25.3-10.8 32.5-2.3 7.2-5.3 16.6-9.1 28.1-3.7 11.6-7 22.2-9.8 31.7-2.8 9.6-5.3 19-7.7 28.2-.6 1.9-.2 3.8 1.1 5.6s3.1 2.8 5.2 2.9c12.7.7 25.4 1.3 38.1 1.8 3 0 4.9-1.4 5.8-4.3 1.9-6.1 4-12.6 6.1-19.3 14.9.1 29.8.1 44.6 0 2.2 6.7 4.3 13.2 6.3 19.3.9 2.8 2.8 4.3 5.6 4.3 12.7-.4 25.3-1 37.9-1.8 2.1-.1 3.8-1.1 5.2-2.9 1.3-1.8 1.8-3.7 1.3-5.6-2.4-9.3-5-18.7-7.8-28.2-2.8-9.6-6.1-20.1-9.7-31.7-3.7-11.6-6.7-21-9-28.1-2.3-7.2-5.9-18-10.8-32.5s-8.2-24.4-10-29.6c-.9-3-2.9-4.6-6.1-4.7-8.3-.1-16.7-.2-25.2-.2z"/></defs><linearGradient id="a" x1="164.71" x2="900.21" y1="620.39" y2="358.37" gradientUnits="userSpaceOnUse"><stop offset="0" stop-color="#b54c7f"/><stop offset=".61" stop-color="#003356"/><stop offset="1" stop-color="#00aeef"/></linearGradient><use fill="url(#a)" overflow="visible" xlink:href="#b"/></svg>