<?xml version="1.0" encoding="utf-8"?>
<!-- Generator: Adobe Illustrator 22.0.1, SVG Export Plug-In . SVG Version: 6.00 Build 0)  -->
<svg version="1.1" id="Layer_1" xmlns="http://www.w3.org/2000/svg" xmlns:xlink="http://www.w3.org/1999/xlink" x="0px" y="0px"
	 viewBox="0 0 1000 1000" style="enable-background:new 0 0 1000 1000;" xml:space="preserve">
<g>
	<g>
		<defs>
			<path id="SVGID_1_" d="M160.9,419.9c-1.2,1.3-1.8,2.8-1.8,4.6c0.6,24.4,0.9,48.7,0.9,73.1c-22.6-33.8-39.4-59.3-50.4-76.7
				c-1-1.9-2.7-2.8-4.9-2.7c-12.9,0.3-25.7,0.9-38.6,1.8c-1.8,0.1-3.3,0.9-4.6,2.2c-1.3,1.3-2,2.8-2.1,4.5c-3,49.3-3,98.6,0,147.9
				c0.1,1.6,0.9,3.1,2.1,4.5c1.3,1.3,2.8,2.1,4.6,2.2c13,0.7,26,1.3,39,1.8c1.6,0,3.1-0.6,4.3-1.8c1.2-1.2,1.8-2.7,1.8-4.5
				c-0.4-23.2-0.7-46.3-0.7-69.5c20.6,31.7,36.2,56,46.8,73.1c1.2,1.9,2.9,2.8,5.2,2.7c13.9-0.3,27.9-0.9,41.9-1.8
				c0.7-0.1,1.5-0.4,2.4-0.8c0.8-0.4,1.5-0.9,2.1-1.5c0.6-0.6,1.1-1.3,1.5-2c0.4-0.7,0.6-1.6,0.6-2.5c3-49.3,3-98.6,0-147.9
				c-0.2-1.6-0.9-3.1-2.1-4.5c-1.3-1.3-2.7-2.1-4.4-2.2c-13-0.9-26-1.5-39-1.8c-0.2,0-0.4,0-0.6,0
				C163.3,418.2,161.9,418.7,160.9,419.9 M563.2,419.9c-1.2,1.3-1.8,2.8-1.8,4.6c0.6,24.4,0.9,48.7,0.9,73.1
				c-22.6-33.8-39.4-59.3-50.4-76.7c-1-1.9-2.7-2.8-4.9-2.7c-12.9,0.3-25.7,0.9-38.6,1.8c-1.8,0.1-3.3,0.9-4.6,2.2
				c-1.3,1.3-2,2.8-2.1,4.5c-3,49.3-3,98.6,0,147.9c0.1,1.6,0.9,3.1,2.1,4.5c1.3,1.3,2.8,2.1,4.6,2.2c13,0.7,26,1.3,39,1.8
				c1.6,0,3.1-0.6,4.3-1.8c1.2-1.2,1.8-2.7,1.8-4.5c-0.4-23.2-0.7-46.3-0.7-69.5c20.6,31.7,36.2,56,46.8,73.1
				c1.2,1.9,2.9,2.8,5.2,2.7c13.9-0.3,27.9-0.9,41.9-1.8c0.7-0.1,1.5-0.4,2.4-0.8c0.8-0.4,1.5-0.9,2.1-1.5c0.6-0.6,1.1-1.3,1.5-2
				c0.4-0.7,0.6-1.6,0.6-2.5c3-49.3,3-98.6,0-147.9c-0.1-1.6-0.9-3.1-2.1-4.5c-1.3-1.3-2.7-2.1-4.4-2.2c-13-0.9-26-1.5-39-1.8
				c-0.2,0-0.4,0-0.6,0C565.6,418.2,564.3,418.7,563.2,419.9 M393.8,421.1c-5.5,11.2-12,24.1-19.5,38.6
				c-7.9-14.5-14.9-27.4-20.8-38.8c-1.2-1.9-2.9-2.9-5.2-2.9c-13.6,0.4-27.1,1.1-40.6,2c-2.4,0.3-4.3,1.5-5.6,3.7
				c-1.3,2.2-1.4,4.2-0.2,6.2c9.1,15.5,23.6,39.3,43.5,71.3C326.1,532.5,312,556,303,571.5c-1.2,1.9-1.1,4,0.2,6.3
				c1.3,2.2,3.2,3.4,5.6,3.6c13.4,0.9,26.9,1.6,40.3,2c2.2,0,4-1,5.2-2.9c5.7-10.9,12.3-23.2,20-37c7.2,13.8,13.4,26,18.8,36.8
				c1.2,2.1,3,3.1,5.4,3.1c13.6-0.4,27.2-1.1,40.8-2c2.4-0.1,4.3-1.3,5.6-3.6c1.3-2.2,1.4-4.3,0.2-6.3
				c-9.1-15.4-23.3-38.7-42.6-69.9c19.9-32.3,34.4-56.2,43.5-71.7c1.2-1.9,1.1-4-0.2-6.2c-1.3-2.2-3.2-3.4-5.6-3.7
				c-13.6-0.9-27.3-1.6-41-2C396.8,418,395,419,393.8,421.1 M889.8,421.1c-5.5,11.2-12,24.1-19.5,38.6
				c-7.9-14.5-14.9-27.4-20.8-38.8c-1.2-1.9-2.9-2.9-5.2-2.9c-13.6,0.4-27.1,1.1-40.6,2c-2.4,0.3-4.3,1.5-5.6,3.7
				c-1.3,2.2-1.4,4.2-0.2,6.2c9.1,15.5,23.6,39.3,43.5,71.3c-19.3,31.4-33.4,54.8-42.4,70.4c-1.2,1.9-1.1,4,0.2,6.3
				c1.3,2.2,3.2,3.4,5.6,3.6c13.4,0.9,26.9,1.6,40.3,2c2.2,0,4-1,5.2-2.9c5.7-10.9,12.3-23.2,20-37c7.2,13.8,13.4,26,18.8,36.8
				c1.2,2.1,3,3.1,5.4,3.1c13.6-0.4,27.2-1.1,40.8-2c2.4-0.1,4.3-1.3,5.6-3.6c1.3-2.2,1.4-4.3,0.2-6.3
				c-9.1-15.4-23.3-38.7-42.6-69.9c19.9-32.3,34.4-56.2,43.5-71.7c1.2-1.9,1.1-4-0.2-6.2c-1.3-2.2-3.2-3.4-5.6-3.7
				c-13.6-0.9-27.3-1.6-41-2C892.8,418,891,419,889.8,421.1 M237.5,419.1c-1.6,0.3-3.1,1.2-4.4,2.6c-1.3,1.4-1.9,3-1.9,4.8
				c-1,49.3-1,98.6,0,147.9c0,1.6,0.6,3.2,1.9,4.7c1.3,1.5,2.7,2.4,4.4,2.7c13.1,2.1,26.2,2.1,39.2,0c1.6-0.3,3.1-1.2,4.4-2.7
				c1.3-1.5,1.9-3.1,1.9-4.7c1-49.3,1-98.6,0-147.9c0-1.8-0.6-3.4-1.9-4.8c-1.3-1.4-2.7-2.3-4.4-2.6c-6.5-1-13-1.6-19.6-1.6
				C250.7,417.5,244.1,418,237.5,419.1 M698.5,508.4c1.3-4.7,2.7-9.9,4.3-15.7c1.6-5.8,2.7-10.2,3.5-13.3
				c7.2,27.9,10.8,42.1,11,42.4H695C696.1,517.6,697.2,513.1,698.5,508.4 M706.2,416.6c-8.4,0-16.9,0.1-25.3,0.2
				c-3,0.2-5,1.7-6.1,4.7c-1.6,5.2-4.9,15.1-9.8,29.6c-4.9,14.5-8.4,25.3-10.8,32.5c-2.3,7.2-5.3,16.6-9.1,28.1
				c-3.7,11.6-7,22.2-9.8,31.7c-2.8,9.6-5.3,19-7.7,28.2c-0.6,1.9-0.2,3.8,1.1,5.6s3.1,2.8,5.2,2.9c12.7,0.7,25.4,1.3,38.1,1.8
				c3,0,4.9-1.4,5.8-4.3c1.9-6.1,4-12.6,6.1-19.3c14.9,0.1,29.8,0.1,44.6,0c2.2,6.7,4.3,13.2,6.3,19.3c0.9,2.8,2.8,4.3,5.6,4.3
				c12.7-0.4,25.3-1,37.9-1.8c2.1-0.1,3.8-1.1,5.2-2.9c1.3-1.8,1.8-3.7,1.3-5.6c-2.4-9.3-5-18.7-7.8-28.2
				c-2.8-9.6-6.1-20.1-9.7-31.7c-3.7-11.6-6.7-21-9-28.1c-2.3-7.2-5.9-18-10.8-32.5c-4.9-14.5-8.2-24.4-10-29.6
				c-0.9-3-2.9-4.6-6.1-4.7C723.1,416.7,714.7,416.6,706.2,416.6z"/>
		</defs>
		<linearGradient id="SVGID_2_" gradientUnits="userSpaceOnUse" x1="164.7055" y1="620.3868" x2="900.212" y2="358.369">
			<stop  offset="0" style="stop-color:#B54C7F"/>
			<stop  offset="0.61" style="stop-color:#003356"/>
			<stop  offset="1" style="stop-color:#00AEEF"/>
		</linearGradient>
		<use xlink:href="#SVGID_1_"  style="overflow:visible;fill:url(#SVGID_2_);"/>
		<clipPath id="SVGID_3_">
			<use xlink:href="#SVGID_1_"  style="overflow:visible;"/>
		</clipPath>
	</g>
</g>
</svg>
