<svg xmlns="http://www.w3.org/2000/svg" xmlns:xlink="http://www.w3.org/1999/xlink" viewBox="0 0 1000 1000" width="1000" height="1000"><defs><path id="b" d="M606 168.3c-4.9 5.2-7.4 11.5-7.4 18.9 2.4 100.2 3.7 200.4 3.7 300.6-92.8-138.9-162-244-207.5-315.3-4.3-8-11.1-11.7-20.3-11.1-52.9 1.2-105.7 3.7-158.6 7.4-7.4.6-13.7 3.7-18.9 9.2-5.2 5.5-8.2 11.7-8.8 18.4-12.3 202.8-12.3 405.7 0 608.5.6 6.8 3.5 12.9 8.8 18.4 5.2 5.5 11.5 8.6 18.9 9.2 53.5 3.1 107 5.5 160.4 7.4 6.8 0 12.6-2.5 17.5-7.4s7.4-11.1 7.4-18.4c-1.8-95.3-2.8-190.5-2.8-285.8 84.8 130.3 149 230.5 192.7 300.6 4.9 8 12 11.7 21.2 11.1 57.2-1.2 114.6-3.7 172.4-7.4 3.1-.6 6.3-1.7 9.7-3.2 3.4-1.5 6.3-3.5 8.8-6 2.4-2.4 4.5-5.2 6-8.3 1.5-3.1 2.3-6.5 2.3-10.1 12.3-202.8 12.3-405.7 0-608.5-.6-6.8-3.5-12.9-8.8-18.4-5.2-5.5-11.2-8.6-18-9.2-53.5-3.7-107-6.1-160.4-7.4-.8-.1-1.5-.1-2.3-.1-6.2-.1-11.6 2.2-16 6.9"/></defs><linearGradient id="a" x1="197.6" x2="858.73" y1="608.25" y2="372.73" gradientUnits="userSpaceOnUse"><stop offset="0" stop-color="#b54c7f"/><stop offset=".61" stop-color="#00689e"/><stop offset="1" stop-color="#00aeef"/></linearGradient><use fill="url(#a)" overflow="visible" xlink:href="#b"/></svg>